<?xml version="1.0" encoding="utf-8"?>
<!-- Generator: Adobe Illustrator 16.0.1, SVG Export Plug-In . SVG Version: 6.00 Build 0)  -->
<!DOCTYPE svg PUBLIC "-//W3C//DTD SVG 1.1//EN" "http://www.w3.org/Graphics/SVG/1.1/DTD/svg11.dtd">
<svg version="1.1" id="Layer_1" xmlns="http://www.w3.org/2000/svg" xmlns:xlink="http://www.w3.org/1999/xlink" x="0px" y="0px"
	 width="142.994px" height="46.675px" viewBox="0 0 142.994 46.675" enable-background="new 0 0 142.994 46.675"
	 xml:space="preserve">
<g>
	<g>
		<path fill="#231F20" d="M11.936,34.741c0.937,0.511,1.701,1.234,2.292,2.17c0.59,0.938,0.886,1.986,0.886,3.147
			c0,0.836-0.158,1.62-0.474,2.353c-0.316,0.735-0.749,1.376-1.298,1.927c-0.55,0.55-1.192,0.983-1.926,1.299
			s-1.518,0.473-2.353,0.473H0.018V24.717h7.334c0.834,0,1.619,0.158,2.353,0.474c0.733,0.316,1.375,0.749,1.925,1.299
			c0.55,0.55,0.982,1.193,1.299,1.926c0.315,0.734,0.474,1.519,0.474,2.353c0,0.775-0.127,1.497-0.382,2.17
			C12.766,33.611,12.404,34.211,11.936,34.741z M10.53,30.768c0-0.896-0.301-1.659-0.901-2.291c-0.601-0.632-1.36-0.947-2.276-0.947
			H2.891v6.478h4.461c0.917,0,1.675-0.314,2.276-0.947C10.229,32.429,10.53,31.665,10.53,30.768z M9.063,43.298
			c0.448,0,0.861-0.086,1.238-0.26c0.377-0.172,0.708-0.408,0.993-0.704c0.285-0.295,0.509-0.637,0.673-1.023
			c0.163-0.386,0.244-0.804,0.244-1.253c0-0.447-0.082-0.871-0.244-1.268c-0.164-0.397-0.388-0.737-0.673-1.023
			c-0.285-0.285-0.616-0.515-0.993-0.688c-0.377-0.172-0.79-0.26-1.238-0.26H2.891v6.479H9.063z"/>
		<path fill="#231F20" d="M32.747,31.472c0,0.855-0.153,1.664-0.458,2.43c-0.306,0.763-0.718,1.441-1.237,2.032
			c-0.52,0.59-1.136,1.079-1.849,1.467c-0.713,0.387-1.478,0.641-2.292,0.764l5.807,7.944h-3.576l-5.776-7.884h-3.636v7.884h-2.872
			V24.717h9.137c0.917,0,1.788,0.179,2.613,0.535c0.825,0.356,1.542,0.841,2.154,1.452c0.611,0.611,1.095,1.33,1.452,2.154
			C32.568,29.684,32.747,30.555,32.747,31.472z M25.993,35.414c0.55,0,1.059-0.102,1.528-0.305c0.468-0.205,0.876-0.485,1.222-0.842
			c0.347-0.355,0.616-0.773,0.81-1.252s0.291-0.994,0.291-1.543c0-0.55-0.097-1.065-0.291-1.544s-0.463-0.896-0.81-1.252
			c-0.346-0.356-0.754-0.637-1.222-0.841c-0.469-0.203-0.978-0.306-1.528-0.306h-6.265v7.884H25.993z"/>
		<path fill="#231F20" d="M45.459,24.168c1.548,0,3.005,0.295,4.37,0.886s2.557,1.396,3.576,2.414
			c1.019,1.02,1.823,2.21,2.414,3.575c0.591,1.365,0.887,2.822,0.887,4.37s-0.296,3.006-0.887,4.369
			c-0.591,1.365-1.396,2.558-2.414,3.576c-1.019,1.02-2.211,1.824-3.576,2.414c-1.365,0.591-2.822,0.887-4.37,0.887
			c-1.568,0-3.036-0.296-4.4-0.887c-1.365-0.59-2.552-1.395-3.56-2.414c-1.008-1.019-1.809-2.211-2.399-3.576
			c-0.59-1.363-0.886-2.821-0.886-4.369s0.295-3.005,0.886-4.37c0.591-1.365,1.391-2.556,2.399-3.575
			c1.008-1.019,2.195-1.823,3.56-2.414C42.423,24.463,43.891,24.168,45.459,24.168z M45.459,43.848c1.161,0,2.246-0.219,3.254-0.656
			c1.009-0.438,1.89-1.041,2.643-1.805c0.754-0.763,1.35-1.659,1.789-2.688c0.437-1.028,0.656-2.124,0.656-3.285
			c0-1.162-0.219-2.251-0.656-3.27c-0.438-1.019-1.034-1.91-1.789-2.675c-0.753-0.763-1.634-1.368-2.643-1.817
			c-1.009-0.447-2.093-0.673-3.254-0.673s-2.251,0.226-3.27,0.673c-1.019,0.449-1.904,1.055-2.659,1.817
			c-0.754,0.765-1.35,1.656-1.787,2.675c-0.438,1.019-0.657,2.107-0.657,3.27c0,1.161,0.219,2.257,0.657,3.285
			c0.438,1.029,1.033,1.926,1.787,2.688c0.754,0.764,1.64,1.366,2.659,1.805C43.208,43.629,44.298,43.848,45.459,43.848z"/>
		<path fill="#231F20" d="M71.893,24.717v2.721h-6.357v18.671h-2.873V27.438h-6.356v-2.721H71.893z"/>
		<path fill="#231F20" d="M90.563,24.717v21.392h-2.872v-9.29H77.118v9.29h-2.873V24.717h2.873v9.29h10.573v-9.29H90.563z"/>
		<path fill="#231F20" d="M96.125,27.53v6.478h10.542v2.812H96.125v6.479h11.367v2.811h-14.27V24.717h14.27v2.812H96.125z"/>
		<path fill="#231F20" d="M125.736,31.472c0,0.855-0.153,1.664-0.458,2.43c-0.306,0.763-0.718,1.441-1.237,2.032
			c-0.521,0.59-1.137,1.079-1.85,1.467c-0.714,0.387-1.478,0.641-2.292,0.764l5.807,7.944h-3.576l-5.775-7.884h-3.636v7.884h-2.873
			V24.717h9.137c0.917,0,1.788,0.179,2.613,0.535s1.542,0.841,2.154,1.452c0.611,0.611,1.096,1.33,1.452,2.154
			C125.558,29.684,125.736,30.555,125.736,31.472z M118.982,35.414c0.551,0,1.06-0.102,1.528-0.305
			c0.468-0.205,0.875-0.485,1.222-0.842c0.347-0.355,0.616-0.773,0.811-1.252c0.193-0.479,0.29-0.994,0.29-1.543
			c0-0.55-0.097-1.065-0.29-1.544c-0.194-0.479-0.464-0.896-0.811-1.252s-0.754-0.637-1.222-0.841
			c-0.469-0.203-0.978-0.306-1.528-0.306h-6.264v7.884H118.982z"/>
		<path fill="#231F20" d="M135.301,33.488c1.549,0.388,2.806,0.855,3.774,1.405c0.968,0.552,1.727,1.138,2.277,1.758
			c0.549,0.622,0.921,1.248,1.114,1.881c0.193,0.63,0.291,1.231,0.291,1.802c0,0.876-0.204,1.696-0.611,2.461
			c-0.407,0.763-0.962,1.431-1.665,2.001c-0.703,0.571-1.528,1.023-2.477,1.359c-0.946,0.336-1.96,0.505-3.04,0.505
			c-0.998,0-1.945-0.144-2.841-0.429c-0.898-0.285-1.688-0.682-2.369-1.19c-0.683-0.51-1.249-1.105-1.696-1.787
			c-0.448-0.685-0.723-1.423-0.825-2.218l2.536-0.519c0.286,0.937,0.891,1.726,1.819,2.369c0.926,0.641,2.052,0.962,3.376,0.962
			c0.672,0,1.309-0.092,1.91-0.275c0.6-0.184,1.125-0.437,1.573-0.763c0.448-0.327,0.801-0.699,1.055-1.117
			c0.255-0.417,0.382-0.87,0.382-1.359c0-1.874-1.753-3.249-5.256-4.125c-0.836-0.203-1.681-0.438-2.536-0.703
			c-0.856-0.264-1.626-0.616-2.308-1.055c-0.683-0.438-1.243-0.992-1.681-1.665s-0.656-1.527-0.656-2.566
			c0-0.877,0.173-1.686,0.519-2.43s0.835-1.38,1.467-1.911c0.632-0.529,1.395-0.947,2.293-1.253
			c0.896-0.305,1.884-0.457,2.964-0.457c0.957,0,1.854,0.143,2.688,0.428c0.835,0.284,1.568,0.677,2.2,1.176
			s1.146,1.091,1.544,1.772c0.397,0.684,0.646,1.433,0.748,2.246l-2.535,0.551c-0.226-0.979-0.734-1.783-1.529-2.414
			c-0.794-0.632-1.833-0.948-3.116-0.948c-1.365,0-2.429,0.306-3.193,0.917s-1.147,1.387-1.147,2.323
			c0,0.366,0.066,0.697,0.199,0.993c0.132,0.296,0.377,0.564,0.733,0.809c0.357,0.244,0.856,0.484,1.498,0.719
			S134.263,33.224,135.301,33.488z"/>
	</g>
	<polygon fill="#4471B6" points="71.999,0.129 71.999,21.616 61.012,9.815 	"/>
	<polygon fill="#50B45B" points="69.88,21.749 59.63,11.009 47.585,16.181 	"/>
	<polygon fill="#EE4032" points="62.833,21.715 44.639,16.977 0.082,21.715 	"/>
	<g>
		<path fill="#61BB5B" d="M74.27,0h8.615l3.904,13.472L90.615,0h8.608v21.799l-6.397,0.02c0,0-0.021-6.658,0.066-8.875
			c0.05-1.289,0.362-5.146,0.362-5.146l-3.992,14.002h-4.981L80.29,7.797c0,0,0.342,3.783,0.396,5.048
			c0.097,2.241,0.066,8.974,0.066,8.974l-6.482-0.02V0z"/>
		<path fill="#61BB5B" d="M102.223,0.033h17.727v5.125l-10.525-0.065v3.06h8.974l-0.033,5.188h-8.973v3.398h10.985l0.067,5.094
			h-18.222V0.033z"/>
		<path fill="#61BB5B" d="M123.039,0l11.646,0.012c2.697,0,4.596,0.853,5.938,2.012c1.343,1.16,2.342,3.204,2.342,5.345
			c0,2.2-0.879,4.402-2.342,5.641c-1.465,1.24-3.593,2.046-6.599,2.046h-3.762l-0.033,6.744h-7.19V0z M130.197,9.975h2.008
			c1.436,0,2.445-0.225,3.025-0.676c0.581-0.452,0.872-1.028,0.872-1.732c0-0.685-0.253-1.264-0.757-1.741
			c-0.505-0.476-1.452-0.713-2.847-0.713h-2.302V9.975z"/>
	</g>
</g>
</svg>
